<?xml version="1.0" encoding="UTF-8"?>
<svg width="274px" height="81px" viewBox="0 0 274 81" version="1.1" xmlns="http://www.w3.org/2000/svg" xmlns:xlink="http://www.w3.org/1999/xlink">
    <title>Powered by Android</title>
    <g id="Page-1" stroke="none" stroke-width="1" fill="none" fill-rule="evenodd">
        <g id="Powered-by-Android" fill-rule="nonzero">
            <path d="M3.936,25 L3.936,18.184 L7.128,18.184 C9,18.184 10.432,17.74 11.424,16.852 C12.416,15.964 12.912,14.728 12.912,13.144 C12.912,11.576 12.432,10.34 11.472,9.436 C10.512,8.532 9.064,8.08 7.128,8.08 L7.128,8.08 L1.752,8.08 L1.752,25 L3.936,25 Z M6.936,16.36 L3.936,16.36 L3.936,9.904 L6.936,9.904 C8.264,9.904 9.22,10.18 9.804,10.732 C10.388,11.284 10.68,12.088 10.68,13.144 C10.68,14.168 10.388,14.96 9.804,15.52 C9.22,16.08 8.264,16.36 6.936,16.36 L6.936,16.36 Z M21.432,25.168 C22.696,25.168 23.828,24.896 24.828,24.352 C25.828,23.808 26.612,23.028 27.18,22.012 C27.748,20.996 28.032,19.8 28.032,18.424 C28.032,17.048 27.748,15.848 27.18,14.824 C26.612,13.8 25.828,13.016 24.828,12.472 C23.828,11.928 22.696,11.656 21.432,11.656 C20.168,11.656 19.036,11.928 18.036,12.472 C17.036,13.016 16.248,13.8 15.672,14.824 C15.096,15.848 14.808,17.048 14.808,18.424 C14.808,19.8 15.096,20.996 15.672,22.012 C16.248,23.028 17.036,23.808 18.036,24.352 C19.036,24.896 20.168,25.168 21.432,25.168 Z M21.432,23.248 C20.648,23.248 19.924,23.072 19.26,22.72 C18.596,22.368 18.06,21.828 17.652,21.1 C17.244,20.372 17.04,19.48 17.04,18.424 C17.04,17.352 17.244,16.452 17.652,15.724 C18.06,14.996 18.596,14.456 19.26,14.104 C19.924,13.752 20.648,13.576 21.432,13.576 C22.216,13.576 22.94,13.752 23.604,14.104 C24.268,14.456 24.804,14.996 25.212,15.724 C25.62,16.452 25.824,17.352 25.824,18.424 C25.824,19.48 25.62,20.372 25.212,21.1 C24.804,21.828 24.268,22.368 23.604,22.72 C22.94,23.072 22.216,23.248 21.432,23.248 Z M35.568,25 L39.216,14.272 L42.84,25 L45.192,25 L48.984,11.824 L46.896,11.824 L44.064,22.888 L40.392,11.824 L38.112,11.824 L34.464,22.912 L31.656,11.824 L29.448,11.824 L33.192,25 L35.568,25 Z M56.856,25.168 C57.96,25.168 58.952,24.968 59.832,24.568 C60.712,24.168 61.428,23.608 61.98,22.888 C62.532,22.168 62.888,21.352 63.048,20.44 L63.048,20.44 L60.72,20.44 C60.56,21.336 60.124,22.052 59.412,22.588 C58.7,23.124 57.816,23.392 56.76,23.392 C55.592,23.392 54.604,23.016 53.796,22.264 C52.988,21.512 52.56,20.384 52.512,18.88 L52.512,18.88 L63.048,18.88 C63.112,18.544 63.144,18.144 63.144,17.68 C63.144,16.576 62.892,15.568 62.388,14.656 C61.884,13.744 61.156,13.016 60.204,12.472 C59.252,11.928 58.136,11.656 56.856,11.656 C55.592,11.656 54.472,11.928 53.496,12.472 C52.52,13.016 51.756,13.8 51.204,14.824 C50.652,15.848 50.376,17.048 50.376,18.424 C50.376,19.8 50.652,20.996 51.204,22.012 C51.756,23.028 52.52,23.808 53.496,24.352 C54.472,24.896 55.592,25.168 56.856,25.168 Z M60.936,17.824 L52.512,17.824 C52.576,16.384 53.016,15.292 53.832,14.548 C54.648,13.804 55.656,13.432 56.856,13.432 C57.608,13.432 58.304,13.592 58.944,13.912 C59.584,14.232 60.088,14.72 60.456,15.376 C60.824,16.032 60.984,16.848 60.936,17.824 L60.936,17.824 Z M68.184,25 L68.184,18.064 C68.184,16.608 68.576,15.564 69.36,14.932 C70.144,14.3 71.152,13.984 72.384,13.984 L72.384,13.984 L73.056,13.984 L73.056,11.608 C71.904,11.608 70.912,11.86 70.08,12.364 C69.248,12.868 68.616,13.576 68.184,14.488 L68.184,14.488 L68.184,11.824 L66,11.824 L66,25 L68.184,25 Z M81.048,25.168 C82.152,25.168 83.144,24.968 84.024,24.568 C84.904,24.168 85.62,23.608 86.172,22.888 C86.724,22.168 87.08,21.352 87.24,20.44 L87.24,20.44 L84.912,20.44 C84.752,21.336 84.316,22.052 83.604,22.588 C82.892,23.124 82.008,23.392 80.952,23.392 C79.784,23.392 78.796,23.016 77.988,22.264 C77.18,21.512 76.752,20.384 76.704,18.88 L76.704,18.88 L87.24,18.88 C87.304,18.544 87.336,18.144 87.336,17.68 C87.336,16.576 87.084,15.568 86.58,14.656 C86.076,13.744 85.348,13.016 84.396,12.472 C83.444,11.928 82.328,11.656 81.048,11.656 C79.784,11.656 78.664,11.928 77.688,12.472 C76.712,13.016 75.948,13.8 75.396,14.824 C74.844,15.848 74.568,17.048 74.568,18.424 C74.568,19.8 74.844,20.996 75.396,22.012 C75.948,23.028 76.712,23.808 77.688,24.352 C78.664,24.896 79.784,25.168 81.048,25.168 Z M85.128,17.824 L76.704,17.824 C76.768,16.384 77.208,15.292 78.024,14.548 C78.84,13.804 79.848,13.432 81.048,13.432 C81.8,13.432 82.496,13.592 83.136,13.912 C83.776,14.232 84.28,14.72 84.648,15.376 C85.016,16.032 85.176,16.848 85.128,17.824 L85.128,17.824 Z M95.592,25.168 C96.872,25.168 97.956,24.848 98.844,24.208 C99.732,23.568 100.352,22.712 100.704,21.64 L100.704,21.64 L100.704,25 L102.888,25 L102.888,7.24 L100.704,7.24 L100.704,15.184 C100.352,14.112 99.732,13.256 98.844,12.616 C97.956,11.976 96.872,11.656 95.592,11.656 C94.424,11.656 93.384,11.928 92.472,12.472 C91.56,13.016 90.844,13.8 90.324,14.824 C89.804,15.848 89.544,17.048 89.544,18.424 C89.544,19.8 89.804,20.996 90.324,22.012 C90.844,23.028 91.56,23.808 92.472,24.352 C93.384,24.896 94.424,25.168 95.592,25.168 Z M96.216,23.248 C94.872,23.248 93.796,22.82 92.988,21.964 C92.18,21.108 91.776,19.928 91.776,18.424 C91.776,16.92 92.18,15.74 92.988,14.884 C93.796,14.028 94.872,13.6 96.216,13.6 C97.08,13.6 97.852,13.796 98.532,14.188 C99.212,14.58 99.744,15.144 100.128,15.88 C100.512,16.616 100.704,17.464 100.704,18.424 C100.704,19.384 100.512,20.228 100.128,20.956 C99.744,21.684 99.212,22.248 98.532,22.648 C97.852,23.048 97.08,23.248 96.216,23.248 Z M119.568,25.168 C120.736,25.168 121.776,24.896 122.688,24.352 C123.6,23.808 124.316,23.028 124.836,22.012 C125.356,20.996 125.616,19.8 125.616,18.424 C125.616,17.048 125.356,15.848 124.836,14.824 C124.316,13.8 123.6,13.016 122.688,12.472 C121.776,11.928 120.736,11.656 119.568,11.656 C118.288,11.656 117.204,11.98 116.316,12.628 C115.428,13.276 114.816,14.128 114.48,15.184 L114.48,15.184 L114.48,7.24 L112.296,7.24 L112.296,25 L114.48,25 L114.48,21.64 C114.816,22.696 115.428,23.548 116.316,24.196 C117.204,24.844 118.288,25.168 119.568,25.168 Z M118.944,23.248 C118.096,23.248 117.328,23.048 116.64,22.648 C115.952,22.248 115.416,21.684 115.032,20.956 C114.648,20.228 114.456,19.384 114.456,18.424 C114.456,17.464 114.648,16.616 115.032,15.88 C115.416,15.144 115.952,14.58 116.64,14.188 C117.328,13.796 118.096,13.6 118.944,13.6 C120.304,13.6 121.388,14.028 122.196,14.884 C123.004,15.74 123.408,16.92 123.408,18.424 C123.408,19.928 123.004,21.108 122.196,21.964 C121.388,22.82 120.304,23.248 118.944,23.248 Z M132.216,31.24 L140.04,11.824 L137.616,11.824 L133.656,22.192 L129.384,11.824 L126.936,11.824 L132.48,24.784 L129.744,31.24 L132.216,31.24 Z" id="Poweredby" fill="#000000"></path>
            <g id="Android_new_logo_2019-(1)" transform="translate(0.000000, 39.000000)">
                <path d="M13.1153403,13.3997693 C17.0341407,13.3997693 20.2892734,15.422376 21.8378316,17.6029988 L21.8378316,13.9370242 L27.810842,13.9370242 L27.810842,41.1474048 L23.5128028,41.1474048 C23.0596242,41.1492625 22.6244701,40.9700598 22.3040218,40.6496115 C21.9835734,40.3291631 21.8043707,39.8940091 21.8062284,39.4408304 L21.8062284,37.4814302 C20.2892734,39.6936563 17.0341407,41.716263 13.1153403,41.716263 C5.65697809,41.716263 0,35.3324106 0,27.5580161 C0,19.7836217 5.65697809,13.3997693 13.1153403,13.3997693 M14.1898501,18.8355248 C9.35455594,18.8355248 6.06782007,22.6595156 6.06782007,27.5580161 C6.06782007,32.4565167 9.32295271,36.2805075 14.1898501,36.2805075 C19.0251442,36.2805075 22.31188,32.4565167 22.31188,27.5580161 C22.31188,22.6595156 19.0567474,18.8355248 14.1898501,18.8355248 M34.605522,13.9370242 L40.6101499,13.9370242 L40.6101499,17.6346021 C42.2535179,14.9167243 45.3506344,13.3997693 48.8901961,13.3997693 C55.210842,13.3997693 59.2876586,17.8558247 59.2876586,24.7769319 L59.2876586,41.1474191 L54.9896194,41.1474191 C54.5364408,41.1492625 54.1012867,40.9700598 53.7808384,40.6496115 C53.46039,40.3291631 53.2811873,39.8940091 53.283045,39.4408304 L53.283045,25.7566321 C53.283045,21.4585928 51.1024221,18.8355248 47.6260669,18.8355248 C43.64406,18.8355248 40.6101499,21.9326413 40.6101499,27.7476355 L40.6101499,41.1474191 L36.3121107,41.1474191 C35.8589321,41.1492625 35.4237781,40.9700598 35.1033297,40.6496115 C34.7828814,40.3291631 34.6036787,39.8940091 34.605522,39.4408304 L34.605522,13.9370242 Z M77.1434833,13.3997693 C81.0622837,13.3997693 84.3174164,15.422376 85.8659746,17.6029988 L85.8659746,0.347635525 L91.838985,0.347635525 L91.838985,41.1790081 L87.5409458,41.1790081 C87.0877672,41.1808657 86.6526131,41.001663 86.3321648,40.6812147 C86.0117164,40.3607663 85.8325137,39.9256123 85.8343714,39.4724337 L85.8343714,37.5130334 C84.3174164,39.6936563 81.0306805,41.716263 77.11188,41.716263 C69.6535179,41.716263 63.9965398,35.3324106 63.9965398,27.5580161 C64.028143,19.7836217 69.6851211,13.3997693 77.1434833,13.3997693 M78.2179931,18.8355248 C73.382699,18.8355248 70.0959631,22.6595156 70.0959631,27.5580161 C70.0959631,32.4565167 73.3510957,36.2805075 78.2179931,36.2805075 C83.0532872,36.2805075 86.3400231,32.4565167 86.3400231,27.5580161 C86.3400231,22.6595156 83.0532872,18.8355248 78.2179931,18.8355248 M98.6336794,13.9370242 L104.60669,13.9370242 L104.60669,18.7723183 C105.680167,15.7244769 108.549354,13.6768635 111.780623,13.6525623 C112.565478,13.650773 113.34867,13.7248587 114.119262,13.8738178 L114.119262,20.0364475 C113.151546,19.7101241 112.138173,19.5394507 111.116955,19.5307958 C107.672203,19.5307958 104.575087,22.4066897 104.575087,27.8740484 L104.575087,41.1474191 L100.277047,41.1474191 C99.8238687,41.1492625 99.3887146,40.9700598 99.0682663,40.6496115 C98.7478179,40.3291631 98.5686152,39.8940091 98.5704586,39.4408304 L98.5704586,13.9370242 L98.6336794,13.9370242 Z M130.300115,41.716263 C122.241292,41.716263 116.047059,35.4588235 116.047059,27.5580161 C116.047059,19.6572088 122.241292,13.3997693 130.300115,13.3997693 C138.358939,13.3997693 144.553172,19.6572088 144.553172,27.5580161 C144.553172,35.4588235 138.358939,41.716263 130.300115,41.716263 M130.300115,36.1540946 C135.103806,36.1540946 138.453749,32.3933103 138.453749,27.5580161 C138.453749,22.722722 135.072203,18.9619377 130.300115,18.9619377 C125.464821,18.9619377 122.083276,22.722722 122.083276,27.5580161 C122.083276,32.3933103 125.464821,36.1540946 130.300115,36.1540946 M152.390773,7.99561707 C150.180071,7.98130899 148.391471,6.19270887 148.377163,3.98200692 C148.416244,1.7869158 150.195441,0.0217280167 152.390773,0 C154.598701,0 156.388581,1.78987987 156.388581,3.99780854 C156.388581,6.2057372 154.598701,7.99561707 152.390773,7.99561707 M149.420055,13.9370242 L155.39308,13.9370242 L155.39308,41.1474191 L151.126644,41.1474191 C150.673465,41.1492625 150.238311,40.9700598 149.917863,40.6496115 C149.597414,40.3291631 149.418212,39.8940091 149.420055,39.4408304 L149.420055,13.9370242 L149.420055,13.9370242 Z M173.438524,13.3997693 C177.357324,13.3997693 180.612457,15.422376 182.161015,17.6029988 L182.161015,0.347635525 L188.134025,0.347635525 L188.134025,41.1790081 L183.835986,41.1790081 C183.382808,41.1808657 182.947654,41.001663 182.627205,40.6812147 C182.306757,40.3607663 182.127554,39.9256123 182.129412,39.4724337 L182.129412,37.5130334 C180.612457,39.6936563 177.325721,41.716263 173.40692,41.716263 C165.948558,41.716263 160.29158,35.3324106 160.29158,27.5580161 C160.323183,19.7836217 165.980161,13.3997693 173.438524,13.3997693 M174.544637,18.8355248 C169.709343,18.8355248 166.422607,22.6595156 166.422607,27.5580161 C166.422607,32.4565167 169.677739,36.2805075 174.544637,36.2805075 C179.379931,36.2805075 182.666667,32.4565167 182.666667,27.5580161 C182.666667,22.6595156 179.379931,18.8355248 174.544637,18.8355248" id="Shape" fill="#000000"></path>
                <path d="M254.216378,30.8763552 C252.540796,30.8763552 251.182468,29.5180275 251.182468,27.8424452 C251.182468,26.166863 252.540796,24.8085352 254.216378,24.8085352 C255.891961,24.8085352 257.250288,26.166863 257.250288,27.8424452 C257.250288,29.5180275 255.891961,30.8763552 254.216378,30.8763552 M220.811765,30.8763552 C219.136182,30.8763552 217.777855,29.5180275 217.777855,27.8424452 C217.777855,26.166863 219.136182,24.8085352 220.811765,24.8085352 C222.487347,24.8085352 223.845675,26.166863 223.845675,27.8424452 C223.845675,29.5180275 222.487347,30.8763552 220.811765,30.8763552 M255.290888,12.672895 L261.358708,2.21222607 C261.581484,1.82250695 261.578649,1.34336474 261.351278,0.956308714 C261.123907,0.569252692 260.706777,0.333483163 260.257904,0.338314652 C259.809031,0.343146141 259.397072,0.587839672 259.178085,0.979700115 L253.047059,11.566782 C248.177627,9.341593 242.883611,8.19868931 237.529873,8.21683968 C232.169843,8.20371655 226.868773,9.33504253 221.981084,11.5351788 L215.850058,0.948096886 C215.507962,0.349641504 214.74657,0.140129973 214.146463,0.479320632 C213.546357,0.81851129 213.333157,1.57887922 213.669435,2.18062284 L219.705652,12.6412918 C209.102403,18.4241695 202.136398,29.1703618 201.186159,41.2106113 L273.778777,41.2106113 C272.857578,29.1772653 265.896532,18.4322654 255.290888,12.672895" id="Shape" fill="#3DDC84"></path>
            </g>
        </g>
    </g>
</svg>